# xmcd
#
# Track frame offsets:
#  150
#  17786
#  37023
#  52420
#  73888
#  87659
#  106668
#  124596
#  141719
#  154998
#  172616
#  187497
#
# Disc length: 2733 seconds
#
# Revision: 0
# Processed by: cddbd v1.5.2PL0 Copyright (c) Steve Scherf et al.
# Submitted via: Collectorz.com_Music_Collector 6.11
#
DISCID=b80aab0c
DTITLE=Omarion - 21
DYEAR=2006
DGENRE=
TTITLE0=Entourage
TTITLE1=Ice Box
TTITLE2=Electric
TTITLE3=Made For TV
TTITLE4=Just Can't Let You Go
TTITLE5=Obsession
TTITLE6=Midnight
TTITLE7=Just that Sexy
TTITLE8=Beg For It
TTITLE9=Do It
TTITLE10=Been With A Star
TTITLE11=What Are We Doing
EXTD=
EXTT0=
EXTT1=
EXTT2=
EXTT3=
EXTT4=
EXTT5=
EXTT6=
EXTT7=
EXTT8=
EXTT9=
EXTT10=
EXTT11=
PLAYORDER=
